<svg width="101" height="42" viewBox="0 0 101 42" fill="none" xmlns="http://www.w3.org/2000/svg">
<path fill-rule="evenodd" clip-rule="evenodd" d="M35.9155 8.05636C35.9155 8.05636 30.3771 0 17.9578 0C7.72016 0 0 5.70659 0 9.06341C0 12.9237 7.72016 14.9378 7.72016 20.9801H20.9787C20.9787 17.4555 9.39845 15.6092 9.39845 8.05636C9.39845 1.17489 27.3562 1.67841 35.9155 8.05636Z" fill="#F4F4F4"/>
<path fill-rule="evenodd" clip-rule="evenodd" d="M35.9155 33.9032C35.9155 33.9032 30.3771 41.9596 17.9578 41.9596C7.72016 41.9596 0 36.253 0 32.8962C0 29.0359 7.72016 26.8539 7.72016 20.9795H20.9787C20.9787 24.5042 9.39845 26.3504 9.39845 33.9032C9.39845 40.7847 27.3562 40.2812 35.9155 33.9032Z" fill="#F4F4F4"/>
<path fill-rule="evenodd" clip-rule="evenodd" d="M0.16783 7.88867C0 8.39219 0 8.72788 0 9.06356C0 12.9239 7.72016 14.938 7.72016 20.9803C7.72016 26.8547 0 29.0366 0 32.897C0 33.2327 0 33.5683 0.16783 33.904C-0.839148 30.2115 12.5872 27.0225 18.7969 23.6657C20.1396 22.8265 20.9787 21.9873 20.9787 20.9803C20.9787 19.9732 20.1396 19.134 18.7969 18.2948C12.5872 14.938 -0.839148 11.749 0.16783 7.88867Z" fill="#F4F4F4"/>
<path d="M30.2093 22.4901H31.552C31.3842 23.1615 31.0485 23.665 30.3772 24.0007C29.8737 24.3364 29.2024 24.6721 28.1954 24.6721C27.1884 24.6721 26.3493 24.3364 25.8458 23.665C25.1745 23.1615 24.8388 22.3223 24.8388 21.1474C24.8388 20.1404 25.1745 19.3012 25.8458 18.6298C26.3493 18.1263 27.1884 17.7906 28.1954 17.7906C29.3702 17.7906 30.2093 18.1263 30.8807 18.6298C31.3842 19.3012 31.7198 20.1404 31.7198 21.1474C31.7198 21.3152 31.7198 21.3152 31.7198 21.3152C31.7198 21.4831 31.7198 21.4831 31.7198 21.4831C31.7198 21.6509 31.7198 21.6509 31.7198 21.6509H26.8528C26.8528 22.1544 27.0206 22.4901 27.3562 22.8258C27.5241 22.9937 27.8597 23.1615 28.3632 23.1615C28.6989 23.1615 28.8667 23.1615 29.2024 22.9937C29.2024 22.9937 29.2024 22.9937 29.3702 22.9937C29.3702 22.8258 29.3702 22.8258 29.538 22.8258C29.538 22.658 29.538 22.658 29.7059 22.658C29.8737 22.4901 30.0415 22.4901 30.2093 22.4901ZM26.8528 20.476H29.7059C29.7059 20.1404 29.538 19.8047 29.3702 19.6368C29.0345 19.3012 28.6989 19.3012 28.3632 19.3012C27.8597 19.3012 27.5241 19.3012 27.3562 19.6368C27.0206 19.8047 26.8528 20.1404 26.8528 20.476ZM39.9435 24.5042H38.9365C38.7686 24.5042 38.433 24.3364 38.2652 24.1685C38.0973 24.1685 38.0973 23.8329 38.0973 23.665V20.3082C38.0973 19.9725 37.9295 19.6368 37.5938 19.469C37.426 19.3012 37.0904 19.1333 36.7547 19.1333C36.419 19.1333 36.0834 19.3012 35.9155 19.469C35.5799 19.6368 35.5799 19.9725 35.5799 20.3082V24.5042H33.5659V20.6439C33.5659 19.469 33.9016 18.7976 34.5729 18.4619C35.2442 17.9584 35.9155 17.7906 36.7547 17.7906C37.5938 17.7906 38.2652 17.9584 38.9365 18.2941C39.6078 18.7976 39.9435 19.469 39.9435 20.6439V24.5042ZM46.6566 15.9443H47.6636C47.9993 15.9443 48.1671 16.1122 48.3349 16.28C48.5028 16.4479 48.6706 16.6157 48.6706 16.7835V21.6509C48.6706 22.8258 48.1671 23.665 47.4958 24.0007C46.6566 24.3364 45.9853 24.6721 44.9783 24.6721C44.4748 24.6721 44.1392 24.5042 43.6357 24.3364C43.1322 24.3364 42.7966 24.0007 42.4609 23.665C41.9574 23.1615 41.7896 22.3223 41.7896 21.3152C41.7896 20.1404 41.9574 19.3012 42.4609 18.7976C43.1322 18.1263 43.8035 17.7906 44.6427 17.7906C45.1462 17.7906 45.4818 17.9584 45.8175 18.1263C46.1531 18.2941 46.4888 18.4619 46.6566 18.7976V15.9443ZM43.6357 21.1474C43.6357 21.8188 43.8035 22.3223 43.9714 22.658C44.307 22.9937 44.6427 23.1615 45.1462 23.1615C45.6497 23.1615 46.1531 22.9937 46.321 22.658C46.6566 22.3223 46.6566 21.8188 46.6566 21.1474C46.6566 20.6439 46.6566 20.1404 46.321 19.8047C45.9853 19.469 45.6497 19.3012 45.1462 19.3012C44.6427 19.3012 44.307 19.469 43.9714 19.8047C43.8035 20.1404 43.6357 20.6439 43.6357 21.1474ZM51.5237 23.8329C51.0202 23.665 50.8524 23.1615 50.6845 22.658C50.5167 22.1544 50.3489 21.6509 50.3489 21.1474C50.3489 20.6439 50.5167 20.3082 50.5167 19.8047C50.6845 19.3012 50.8524 18.9655 51.188 18.6298C51.6915 18.2941 52.3628 17.9584 53.0341 17.7906C53.8733 17.7906 54.5446 17.7906 55.0481 17.9584C55.8872 18.2941 56.3907 18.6298 56.7264 19.3012C57.062 19.8047 57.062 20.476 57.062 21.1474C57.062 21.6509 57.062 22.1544 56.8942 22.4901C56.8942 22.8258 56.7264 23.1615 56.3907 23.4972C56.0551 24.0007 55.3838 24.3364 54.7124 24.5042C54.209 24.6721 53.5376 24.6721 52.8663 24.5042C52.3628 24.3364 51.8593 24.1685 51.5237 23.8329ZM52.6985 19.6368C52.3628 19.9725 52.195 20.476 52.195 21.3152C52.3628 21.9866 52.3628 22.4901 52.6985 22.8258C52.8663 22.9937 53.0341 22.9937 53.3698 23.1615C53.5376 23.1615 53.8733 23.1615 54.209 23.1615C54.3768 23.1615 54.7124 22.9937 54.8803 22.658C55.0481 22.3223 55.2159 21.8188 55.2159 21.1474C55.2159 20.6439 55.2159 20.1404 54.8803 19.8047C54.7124 19.6368 54.5446 19.3012 54.209 19.3012C53.8733 19.1333 53.7055 19.1333 53.3698 19.3012C53.0341 19.3012 52.8663 19.469 52.6985 19.6368ZM59.076 24.5042V21.3152C59.076 20.6439 59.076 20.1404 59.4117 19.6368C59.5795 19.3012 59.9151 18.9655 60.2508 18.6298C60.5865 18.4619 60.9221 18.2941 61.4256 18.1263C61.9291 17.9584 62.4326 17.9584 62.9361 17.9584C62.9361 17.9584 62.9361 17.9584 63.1039 17.9584V19.6368H62.6004C61.9291 19.6368 61.5934 19.8047 61.4256 19.9725C61.09 20.3082 60.9221 20.6439 60.9221 21.1474V24.5042H59.076ZM66.7962 26.0148C66.7962 26.3505 66.7962 26.5183 66.6283 26.6861C66.2927 26.854 66.1248 26.854 65.957 26.854H64.95V20.8117C64.95 19.6368 65.2857 18.7976 66.1248 18.4619C66.7962 17.9584 67.6353 17.7906 68.4744 17.7906C68.9779 17.7906 69.4814 17.9584 69.9849 17.9584C70.4884 18.1263 70.8241 18.4619 70.9919 18.6298C71.6632 19.3012 71.831 20.1404 71.831 21.1474C71.831 22.1544 71.6632 22.9937 70.9919 23.665C70.4884 24.3364 69.8171 24.6721 68.9779 24.6721C68.4744 24.6721 68.1388 24.5042 67.6353 24.3364C67.2996 24.1685 67.1318 24.0007 66.7962 23.665V26.0148ZM69.9849 21.3152C69.9849 20.6439 69.8171 20.1404 69.6493 19.8047C69.3136 19.469 68.9779 19.3012 68.3066 19.3012C67.8031 19.3012 67.4675 19.469 67.2996 19.8047C66.964 20.1404 66.7962 20.6439 66.7962 21.3152C66.7962 21.8188 66.964 22.3223 67.2996 22.658C67.4675 22.9937 67.971 23.1615 68.4744 23.1615C68.9779 23.1615 69.3136 22.9937 69.6493 22.658C69.8171 22.3223 69.9849 21.8188 69.9849 21.3152ZM78.3764 19.8047C78.2086 19.469 77.7051 19.3012 77.3694 19.3012C76.6981 19.3012 76.3624 19.469 76.0268 19.8047C75.8589 20.1404 75.6911 20.476 75.6911 21.1474V24.5042H73.845V16.1122H74.6841C75.0198 16.1122 75.1876 16.1122 75.3555 16.28C75.5233 16.4479 75.6911 16.6157 75.6911 16.7835V18.7976C76.0268 18.2941 76.5303 17.9584 77.0337 17.9584C77.7051 17.7906 78.2086 17.7906 78.8799 17.9584C79.3834 18.1263 79.719 18.4619 80.0547 18.9655C80.5582 19.3012 80.726 19.9725 80.726 20.6439V24.5042H78.8799V21.1474C78.8799 20.8117 78.712 20.6439 78.712 20.476C78.712 20.1404 78.5442 19.9725 78.3764 19.8047ZM82.7399 17.9584H83.7469C83.9148 17.9584 84.2504 17.9584 84.4182 18.1263C84.5861 18.2941 84.7539 18.6298 84.7539 18.7976V24.5042H82.7399V17.9584ZM82.7399 16.1122H83.7469C83.9148 16.1122 84.2504 16.1122 84.4182 16.28C84.5861 16.4479 84.7539 16.6157 84.7539 16.7835V17.4549H82.7399V16.1122ZM92.8097 24.5042H91.8027C91.4671 24.5042 91.2992 24.3364 91.1314 24.1685C90.9636 24.1685 90.7958 23.8329 90.7958 23.665V20.3082C90.7958 19.9725 90.7958 19.6368 90.4601 19.469C90.1244 19.3012 89.9566 19.1333 89.6209 19.1333C89.2853 19.1333 88.9496 19.3012 88.614 19.469C88.4461 19.6368 88.2783 19.9725 88.2783 20.3082V24.5042H86.4322V20.6439C86.4322 19.469 86.6 18.7976 87.2713 18.4619C87.9427 17.9584 88.7818 17.7906 89.4531 17.7906C90.2923 17.7906 91.1314 17.9584 91.8027 18.2941C92.4741 18.7976 92.8097 19.469 92.8097 20.6439V24.5042ZM98.8516 21.1474C98.6837 21.3152 98.3481 21.4831 97.8446 21.4831C97.3411 21.6509 97.1733 21.6509 97.1733 21.6509C96.8376 21.6509 96.6698 21.8188 96.502 21.9866C96.3341 22.1544 96.3341 22.3223 96.3341 22.4901C96.3341 22.658 96.3341 22.9937 96.502 23.1615C96.6698 23.1615 97.0054 23.3293 97.1733 23.3293C97.8446 23.3293 98.1803 23.1615 98.5159 22.8258C98.6837 22.658 98.8516 22.3223 98.8516 21.8188V21.1474ZM99.3551 24.1685C99.0194 24.3364 98.5159 24.5042 98.1803 24.5042C97.6768 24.5042 97.3411 24.6721 97.0054 24.6721C96.3341 24.6721 95.6628 24.5042 95.1593 24.1685C94.6558 23.8329 94.488 23.3293 94.488 22.4901C94.488 21.8188 94.6558 21.3152 95.1593 21.1474C95.6628 20.8117 96.1663 20.6439 96.8376 20.476C97.0054 20.476 97.0054 20.476 97.1733 20.476C97.3411 20.476 97.5089 20.476 97.6768 20.3082C98.5159 20.3082 98.8516 20.1404 98.8516 19.8047C98.8516 19.469 98.6837 19.3012 98.5159 19.3012C98.1803 19.1333 97.8446 19.1333 97.6768 19.1333C97.3411 19.1333 97.1733 19.1333 97.0054 19.3012C96.8376 19.3012 96.6698 19.469 96.502 19.6368H94.6558C94.8237 19.1333 94.9915 18.6298 95.495 18.2941C95.9985 17.9584 96.6698 17.7906 97.5089 17.7906C98.6837 17.7906 99.3551 17.9584 99.8585 18.2941C100.362 18.6298 100.698 19.1333 100.698 19.6368V21.8188C100.698 22.4901 100.53 22.9937 100.362 23.4972C100.026 23.8329 99.6907 24.0007 99.3551 24.1685Z" fill="#F4F4F4"/>
</svg>
